<?xml version="1.0" encoding="UTF-8"?>
<svg width="440px" viewBox="0 0 170 88" version="1.1" xmlns="http://www.w3.org/2000/svg" xmlns:xlink="http://www.w3.org/1999/xlink">
    <g id="Page-1" stroke="none" stroke-width="1" fill="none" fill-rule="evenodd">
        <g fill="#333333">
            <polygon id="Fill-1" points="0 21.4369 26.059 87.9039 28.945 14.9319"></polygon>
            <polygon id="Fill-2" points="35.56 13.6798 26.974 87.9998 93.537 -0.0002"></polygon>
            <polygon id="Fill-3" points="85.2558 64.097 85.1758 64.097 75.3548 39.442 73.5098 39.442 84.1738 65.483 86.2178 65.483 96.9218 39.442 95.1578 39.442"></polygon>
            <polygon id="Fill-4" points="106.903 65.483 108.667 65.483 108.667 39.442 106.903 39.442"></polygon>
            <polygon id="Fill-5" points="118.6489 40.8284 128.7109 40.8284 128.7109 65.4824 130.4739 65.4824 130.4739 40.8284 140.5769 40.8284 140.5769 39.4414 118.6489 39.4414"></polygon>
            <polygon id="Fill-6" points="150.5583 39.4414 150.5583 65.4824 170.0003 65.4824 170.0003 64.0964 152.3213 64.0964 152.3213 52.6454 168.7573 52.6454 168.7573 51.2584 152.3213 51.2584 152.3213 40.8284 169.7993 40.8284 169.7993 39.4414"></polygon>
        </g>
    </g>
</svg>
